<svg xmlns="http://www.w3.org/2000/svg" width="24" height="24" viewBox="0 0 24 24" fill="none" stroke="currentColor" stroke-width="2" stroke-linecap="round" stroke-linejoin="round">
  <path d="M12 2a10 10 0 1 0 10 10A10 10 0 0 0 12 2z" />
  <path d="M15.41 8.59a2 2 0 0 0-2.82 0L12 9.17l-.59-.58a2 2 0 0 0-2.82 0L6 11.17V15a2 2 0 0 0 2 2h8a2 2 0 0 0 2-2v-3.83l-2.59-2.58z" />
  <path d="M8 17a1 1 0 1 0 0-2 1 1 0 0 0 0 2z" />
  <path d="M16 17a1 1 0 1 0 0-2 1 1 0 0 0 0 2z" />
  <path d="M12 8v2" />
</svg>